<svg xmlns="http://www.w3.org/2000/svg" viewBox="98 43 326 558" width="100%" height="100%" overflow="visible">
  <!-- Life Link Logo -->
  <g id="life-link-logo" stroke="#FFFFFF" stroke-width="10" stroke-linejoin="round" stroke-linecap="round" paint-order="stroke fill">
    <path id="red-ribbon" fill="#CE1A24" d="M 261.22 49.54 C 262.19 49.80 262.39 50.08 262.94 50.91 C 263.11 51.15 263.28 51.40 263.45 51.66 C 263.63 51.94 263.82 52.22 264.00 52.50 C 264.20 52.80 264.41 53.11 264.61 53.41 C 265.15 54.20 265.67 55.00 266.20 55.80 C 266.64 56.47 267.09 57.13 267.53 57.80 C 268.20 58.80 268.86 59.80 269.53 60.80 C 269.70 61.04 269.86 61.29 270.03 61.55 C 270.32 61.98 270.61 62.42 270.90 62.85 C 271.70 64.06 272.52 65.24 273.35 66.43 C 273.67 66.89 273.99 67.36 274.30 67.83 C 274.75 68.50 274.75 68.50 275.27 69.14 C 275.75 69.75 275.75 69.75 276.10 70.34 C 276.50 71.00 276.93 71.60 277.39 72.22 C 278.54 73.78 279.61 75.39 280.68 77.01 C 281.21 77.82 281.75 78.62 282.28 79.42 C 282.49 79.73 282.70 80.04 282.90 80.36 C 282.95 80.43 282.95 80.43 283.21 80.81 C 283.66 81.49 284.11 82.17 284.56 82.84 C 284.72 83.08 284.88 83.33 285.05 83.57 C 285.33 84.00 285.61 84.42 285.90 84.85 C 286.70 86.06 287.52 87.25 288.35 88.43 C 288.97 89.32 289.57 90.22 290.15 91.13 C 290.93 92.38 291.73 93.58 292.62 94.75 C 293.36 95.73 294.05 96.74 294.75 97.75 C 294.85 97.90 294.96 98.05 295.06 98.20 C 296.56 100.37 298.04 102.55 299.50 104.75 C 299.83 105.25 300.17 105.75 300.50 106.25 C 301.16 107.23 301.81 108.22 302.47 109.20 C 302.63 109.45 302.80 109.69 302.97 109.95 C 303.35 110.53 303.74 111.11 304.12 111.68 C 305.04 113.07 305.96 114.45 306.92 115.81 C 307.67 116.88 308.37 117.97 309.06 119.07 C 309.62 119.94 310.22 120.78 310.82 121.62 C 311.25 122.25 311.66 122.90 312.06 123.55 C 312.91 124.89 313.84 126.16 314.80 127.42 C 315.48 128.33 316.00 129.23 316.50 130.25 C 316.89 130.74 316.89 130.74 317.31 131.17 C 318.16 132.11 318.82 133.10 319.48 134.17 C 320.12 135.19 320.79 136.19 321.45 137.19 C 321.58 137.38 321.71 137.57 321.84 137.77 C 322.10 138.16 322.36 138.55 322.62 138.93 C 323.20 139.79 323.77 140.66 324.34 141.52 C 324.55 141.82 324.75 142.13 324.96 142.43 C 325.28 142.92 325.60 143.41 325.93 143.89 C 326.72 145.09 327.53 146.26 328.35 147.43 C 329.13 148.55 329.87 149.68 330.59 150.83 C 331.67 152.52 332.76 154.18 333.96 155.79 C 335.17 157.42 336.30 159.06 337.35 160.80 C 338.17 162.16 339.08 163.45 340.00 164.75 C 342.36 168.12 344.69 171.50 346.95 174.93 C 347.45 175.69 347.94 176.42 348.52 177.12 C 348.94 177.67 349.25 178.19 349.58 178.80 C 350.15 179.85 350.80 180.81 351.49 181.78 C 352.10 182.65 352.68 183.52 353.27 184.41 C 354.02 185.54 354.78 186.65 355.61 187.74 C 357.54 190.31 359.28 193.04 361.06 195.72 C 362.23 197.49 363.42 199.25 364.62 201.00 C 366.76 204.09 368.82 207.23 370.86 210.38 C 372.68 213.17 374.53 215.94 376.43 218.67 C 377.38 220.04 378.29 221.43 379.21 222.81 C 379.62 223.43 380.04 224.05 380.45 224.67 C 381.34 226.01 382.22 227.36 383.09 228.70 C 384.87 231.44 386.66 234.17 388.54 236.84 C 389.45 238.14 390.32 239.47 391.19 240.79 C 391.81 241.72 392.43 242.65 393.05 243.57 C 393.33 244.00 393.61 244.42 393.90 244.85 C 393.96 244.94 393.96 244.94 394.27 245.41 C 394.39 245.59 394.51 245.77 394.63 245.96 C 394.87 246.31 395.12 246.66 395.38 247.01 C 397.05 249.29 398.38 251.78 399.75 254.25 C 399.84 254.42 399.94 254.59 400.04 254.76 C 405.56 264.71 409.51 275.54 412.50 286.50 C 412.56 286.71 412.61 286.91 412.67 287.12 C 413.36 289.60 413.97 292.07 414.39 294.60 C 414.47 295.08 414.56 295.56 414.64 296.04 C 415.31 299.84 415.86 303.61 416.19 307.45 C 416.20 307.62 416.22 307.79 416.23 307.97 C 417.25 319.98 416.81 331.90 414.50 343.75 C 414.45 343.99 414.41 344.22 414.36 344.46 C 412.89 352.03 410.63 359.72 407.55 366.80 C 407.26 367.48 406.99 368.17 406.72 368.86 C 406.06 370.55 405.32 372.16 404.49 373.77 C 404.12 374.50 403.77 375.24 403.42 375.99 C 402.17 378.69 400.82 381.27 399.27 383.81 C 398.91 384.40 398.56 385.00 398.20 385.59 C 397.13 387.38 396.06 389.13 394.75 390.75 C 394.45 391.16 394.16 391.57 393.88 391.98 C 393.73 392.19 393.59 392.39 393.45 392.60 C 393.13 393.06 392.83 393.52 392.53 393.98 C 391.95 394.82 391.32 395.57 390.62 396.33 C 390.51 396.46 390.39 396.60 390.27 396.73 C 389.19 397.92 389.19 397.92 388.25 398.00 C 386.04 396.85 384.23 394.51 382.50 392.74 C 378.40 388.55 373.82 385.02 368.50 382.50 C 368.21 382.36 367.92 382.22 367.62 382.08 C 366.83 381.70 366.03 381.34 365.24 380.97 C 364.92 380.83 364.60 380.68 364.28 380.53 C 362.00 379.48 359.70 378.61 357.32 377.85 C 356.09 377.46 354.92 377.03 353.75 376.50 C 353.79 374.90 354.67 374.07 355.75 373.00 C 356.22 372.57 356.70 372.16 357.19 371.74 C 358.98 370.17 360.66 368.48 362.00 366.50 C 362.11 366.34 362.23 366.18 362.34 366.01 C 363.26 364.67 364.09 363.29 364.92 361.89 C 365.01 361.74 365.10 361.59 365.19 361.44 C 365.28 361.28 365.37 361.13 365.47 360.97 C 365.65 360.66 365.85 360.35 366.05 360.05 C 367.06 358.53 367.75 356.89 368.45 355.20 C 368.52 355.05 368.58 354.89 368.65 354.74 C 371.87 347.13 374.62 339.26 375.50 331.00 C 375.51 330.91 375.51 330.91 375.57 330.43 C 376.56 321.85 376.74 312.31 374.88 303.84 C 374.72 303.13 374.58 302.42 374.43 301.72 C 373.32 296.47 371.93 291.34 369.98 286.34 C 369.74 285.72 369.51 285.11 369.27 284.49 C 368.21 281.71 366.95 279.10 365.50 276.50 C 365.31 276.15 365.11 275.80 364.92 275.44 C 363.85 273.50 362.71 271.61 361.50 269.75 C 361.20 269.28 360.91 268.81 360.61 268.34 C 359.43 266.49 358.20 264.66 356.93 262.86 C 356.28 261.93 355.66 260.99 355.04 260.04 C 354.22 258.80 353.39 257.58 352.50 256.39 C 351.58 255.14 350.77 253.84 349.97 252.52 C 348.93 250.82 347.79 249.19 346.65 247.57 C 345.87 246.45 345.13 245.32 344.41 244.17 C 343.20 242.27 341.94 240.41 340.65 238.57 C 340.34 238.12 340.03 237.67 339.73 237.22 C 339.35 236.65 338.95 236.10 338.53 235.55 C 337.23 233.82 336.09 232.00 334.93 230.18 C 334.53 229.55 334.12 228.93 333.70 228.31 C 333.28 227.68 332.88 227.05 332.52 226.38 C 332.11 225.64 331.62 225.01 331.09 224.36 C 330.42 223.52 330.00 222.81 329.75 221.75 C 329.59 221.75 329.42 221.75 329.25 221.75 C 328.88 221.23 328.54 220.70 328.20 220.16 C 328.00 219.83 327.80 219.51 327.59 219.18 C 327.49 219.02 327.39 218.86 327.29 218.70 C 326.78 217.91 326.24 217.15 325.70 216.39 C 325.17 215.64 324.65 214.88 324.12 214.12 C 323.45 213.15 322.78 212.18 322.09 211.22 C 321.36 210.17 320.67 209.10 319.99 208.01 C 318.58 205.81 317.12 203.65 315.61 201.51 C 314.84 200.42 314.12 199.30 313.41 198.17 C 312.62 196.94 311.82 195.72 311.00 194.50 C 310.70 194.05 310.40 193.61 310.11 193.16 C 309.89 192.83 309.67 192.51 309.45 192.18 C 308.96 191.44 308.46 190.69 307.97 189.95 C 307.15 188.70 306.31 187.48 305.41 186.30 C 304.32 184.86 303.32 183.38 302.33 181.88 C 301.86 181.16 301.37 180.46 300.88 179.77 C 300.13 178.71 299.45 177.62 298.77 176.52 C 297.89 175.10 296.98 173.74 295.98 172.41 C 295.11 171.22 294.31 169.98 293.50 168.75 C 292.99 167.98 292.48 167.22 291.97 166.45 C 291.68 166.02 291.40 165.59 291.11 165.16 C 290.28 163.89 289.40 162.67 288.51 161.44 C 286.56 158.77 286.56 158.77 285.90 157.65 C 285.42 156.87 284.89 156.14 284.36 155.41 C 283.13 153.70 281.95 151.95 280.79 150.19 C 280.35 149.53 279.91 148.86 279.47 148.20 C 278.80 147.20 278.14 146.20 277.47 145.20 C 277.30 144.96 277.14 144.71 276.97 144.45 C 276.68 144.02 276.39 143.58 276.10 143.14 C 275.48 142.20 274.84 141.29 274.14 140.41 C 272.97 138.92 271.91 137.34 271.08 135.64 C 270.75 135.00 270.75 135.00 270.27 134.53 C 269.66 133.91 269.38 133.29 269.03 132.50 C 268.75 132.00 268.75 132.00 268.29 131.54 C 267.62 130.87 267.15 130.11 266.66 129.31 C 266.05 128.35 265.45 127.40 264.75 126.50 C 263.64 125.08 262.71 123.52 261.75 122.00 C 260.83 122.13 260.36 122.25 259.78 122.98 C 259.72 123.06 259.72 123.06 259.40 123.46 C 258.66 124.46 257.95 125.48 257.25 126.50 C 256.98 126.88 256.72 127.25 256.45 127.62 C 255.48 129.02 254.54 130.43 253.61 131.85 C 252.89 132.94 252.14 133.98 251.36 135.02 C 250.80 135.77 250.28 136.56 249.77 137.34 C 248.05 139.94 246.29 142.52 244.38 144.97 C 244.01 145.49 243.71 146.00 243.42 146.56 C 242.80 147.68 242.11 148.70 241.36 149.73 C 240.27 151.26 239.21 152.80 238.17 154.36 C 237.28 155.71 236.38 157.04 235.44 158.36 C 234.54 159.66 233.68 160.98 232.80 162.29 C 232.20 163.20 231.59 164.11 230.98 165.02 C 230.65 165.52 230.32 166.02 229.99 166.51 C 229.23 167.66 228.47 168.80 227.67 169.92 C 226.17 172.05 224.79 174.27 223.38 176.46 C 222.29 178.17 221.17 179.85 220.00 181.50 C 218.50 183.64 217.04 185.81 215.59 187.98 C 214.97 188.92 214.34 189.86 213.72 190.80 C 213.46 191.18 213.21 191.56 212.96 191.94 C 207.25 200.50 207.25 200.50 206.75 201.24 C 206.41 201.76 206.07 202.28 205.72 202.80 C 204.27 205.01 204.27 205.01 203.56 205.83 C 203.12 206.36 202.81 206.80 202.48 207.39 C 202.04 208.17 201.56 208.80 201.00 209.50 C 200.83 209.79 200.66 210.08 200.50 210.38 C 200.07 211.15 199.56 211.81 199.00 212.50 C 198.00 213.93 197.08 215.41 196.15 216.88 C 195.90 217.27 195.63 217.65 195.35 218.03 C 194.93 218.59 194.60 219.20 194.26 219.82 C 193.89 220.43 193.44 220.95 193.00 221.50 C 192.18 222.68 191.41 223.89 190.64 225.11 C 189.96 226.18 189.25 227.22 188.52 228.25 C 187.84 229.23 187.19 230.22 186.53 231.20 C 185.00 233.51 183.42 235.79 181.83 238.06 C 180.44 240.04 179.14 242.06 177.83 244.09 C 176.75 245.76 175.65 247.42 174.54 249.07 C 174.09 249.74 173.65 250.41 173.20 251.08 C 172.62 251.96 172.02 252.83 171.41 253.69 C 170.66 254.75 169.98 255.83 169.30 256.94 C 168.39 258.42 167.42 259.84 166.40 261.25 C 165.39 262.64 164.45 264.07 163.50 265.50 C 163.42 265.62 163.42 265.62 163.02 266.21 C 161.04 269.15 159.15 272.13 157.52 275.28 C 157.16 275.97 156.78 276.64 156.39 277.32 C 154.96 279.81 153.77 282.32 152.71 284.99 C 152.44 285.65 152.15 286.29 151.86 286.94 C 150.88 289.30 150.21 291.79 149.50 294.25 C 149.43 294.48 149.37 294.71 149.30 294.94 C 148.24 298.50 147.51 302.09 146.88 305.75 C 146.77 306.40 146.65 307.04 146.52 307.69 C 144.92 316.02 144.96 324.96 146.57 333.29 C 146.74 334.21 146.87 335.13 146.98 336.06 C 147.19 337.62 147.45 339.17 147.73 340.72 C 147.77 340.94 147.81 341.15 147.85 341.38 C 148.13 342.80 148.52 344.13 149.00 345.50 C 149.17 346.03 149.35 346.55 149.52 347.08 C 149.71 347.66 149.90 348.24 150.09 348.81 C 150.19 349.10 150.28 349.38 150.38 349.67 C 152.54 356.21 155.51 362.55 159.41 368.24 C 159.65 368.60 159.88 368.97 160.10 369.35 C 160.54 370.07 161.03 370.73 161.53 371.41 C 161.71 371.64 161.88 371.88 162.06 372.12 C 162.29 372.41 162.52 372.71 162.75 373.00 C 162.90 373.19 163.05 373.38 163.20 373.58 C 164.71 375.47 166.36 377.17 168.07 378.88 C 168.37 379.18 168.67 379.49 168.98 379.79 C 169.79 380.60 170.61 381.42 171.42 382.23 C 172.28 383.09 173.14 383.94 173.99 384.80 C 175.43 386.24 176.87 387.67 178.30 389.11 C 179.96 390.76 181.62 392.42 183.28 394.07 C 185.05 395.85 186.82 397.62 188.59 399.39 C 189.10 399.89 189.61 400.40 190.12 400.91 C 190.92 401.71 191.72 402.51 192.52 403.30 C 192.81 403.60 193.10 403.89 193.39 404.18 C 194.76 405.55 196.12 406.89 197.59 408.15 C 198.12 408.60 198.61 409.08 199.10 409.57 C 199.29 409.76 199.48 409.96 199.68 410.15 C 199.78 410.25 199.78 410.25 200.28 410.76 C 200.49 410.97 200.71 411.18 200.92 411.40 C 201.59 412.07 202.26 412.74 202.92 413.41 C 203.37 413.86 203.82 414.31 204.27 414.76 C 205.10 415.59 205.92 416.41 206.74 417.24 C 207.30 417.80 207.85 418.35 208.40 418.90 C 209.03 419.53 209.65 420.15 210.27 420.78 C 210.95 421.46 211.62 422.13 212.30 422.81 C 212.65 423.16 213.00 423.52 213.36 423.88 C 213.87 424.39 214.39 424.91 214.90 425.43 C 215.06 425.58 215.21 425.74 215.37 425.90 C 216.32 426.84 217.29 427.74 218.30 428.60 C 219.00 429.22 219.65 429.87 220.30 430.53 C 220.42 430.66 220.54 430.78 220.67 430.91 C 220.92 431.16 221.16 431.40 221.40 431.65 C 221.73 431.98 222.05 432.30 222.38 432.63 C 222.82 433.07 223.25 433.51 223.69 433.95 C 223.92 434.18 224.15 434.42 224.39 434.66 C 224.51 434.78 224.62 434.89 224.75 435.02 C 225.25 435.53 225.75 436.00 226.33 436.43 C 226.47 436.53 226.61 436.64 226.75 436.75 C 226.75 436.92 226.75 437.08 226.75 437.25 C 226.89 437.31 227.04 437.37 227.19 437.44 C 227.83 437.79 228.26 438.20 228.78 438.72 C 228.88 438.82 228.88 438.82 229.38 439.33 C 229.59 439.55 229.81 439.76 230.03 439.99 C 230.25 440.21 230.47 440.43 230.70 440.66 C 231.29 441.26 231.88 441.85 232.47 442.45 C 233.29 443.28 234.12 444.12 234.95 444.95 C 235.39 445.39 235.83 445.84 236.26 446.28 C 237.27 447.30 238.28 448.28 239.39 449.18 C 239.75 449.50 239.75 449.50 240.36 450.23 C 240.85 450.82 241.26 451.23 241.83 451.71 C 243.26 452.95 244.57 454.30 245.91 455.64 C 246.39 456.13 246.87 456.62 247.36 457.11 C 248.74 458.49 250.12 459.88 251.49 461.27 C 252.34 462.12 253.19 462.97 254.03 463.82 C 254.35 464.14 254.67 464.47 254.99 464.79 C 256.65 466.46 258.30 468.07 260.17 469.51 C 260.79 470.04 261.26 470.61 261.75 471.25 C 262.02 471.49 262.29 471.73 262.58 471.95 C 263.20 472.47 263.73 473.00 264.25 473.61 C 265.01 474.50 265.83 475.34 266.66 476.17 C 266.79 476.30 266.92 476.42 267.05 476.55 C 267.57 477.07 268.10 477.59 268.63 478.11 C 270.77 480.21 272.90 482.29 274.20 485.03 C 274.27 485.18 274.35 485.33 274.42 485.49 C 274.62 485.91 274.81 486.33 275.00 486.75 C 275.09 486.94 275.17 487.12 275.26 487.31 C 277.05 491.62 276.84 497.86 275.08 502.14 C 274.89 502.51 274.70 502.88 274.50 503.25 C 274.43 503.39 274.43 503.39 274.06 504.08 C 271.65 508.56 267.80 512.04 262.86 513.54 C 257.04 514.96 251.49 514.97 245.94 512.59 C 245.77 512.52 245.60 512.45 245.43 512.38 C 242.15 510.88 239.52 508.41 237.03 505.86 C 236.73 505.57 236.44 505.27 236.15 504.98 C 235.38 504.21 234.63 503.44 233.87 502.67 C 232.65 501.44 231.43 500.20 230.21 498.97 C 229.79 498.55 229.37 498.12 228.95 497.69 C 228.68 497.43 228.42 497.16 228.16 496.90 C 227.94 496.67 227.71 496.44 227.48 496.21 C 226.95 495.68 226.39 495.19 225.83 494.70 C 224.77 493.78 223.77 492.81 222.79 491.81 C 222.69 491.72 222.69 491.72 222.22 491.25 C 221.60 490.63 220.98 490.00 220.35 489.38 C 219.91 488.93 219.46 488.48 219.01 488.03 C 218.05 487.07 217.09 486.11 216.13 485.15 C 214.74 483.75 213.34 482.36 211.95 480.96 C 209.69 478.70 207.42 476.43 205.16 474.17 C 205.03 474.03 204.89 473.90 204.75 473.76 C 203.66 472.66 202.56 471.56 201.46 470.46 C 200.50 469.50 199.55 468.54 198.59 467.58 C 198.52 467.51 198.52 467.51 198.18 467.17 C 195.92 464.92 193.67 462.66 191.42 460.40 C 190.03 459.01 188.64 457.62 187.25 456.23 C 186.19 455.16 185.12 454.10 184.06 453.03 C 183.62 452.60 183.19 452.16 182.75 451.72 C 182.16 451.13 181.56 450.53 180.96 449.94 C 180.79 449.76 180.62 449.59 180.45 449.42 C 179.48 448.45 178.48 447.53 177.44 446.64 C 176.73 446.01 176.09 445.30 175.45 444.59 C 173.31 442.26 171.06 440.04 168.82 437.81 C 167.77 436.77 166.73 435.73 165.69 434.68 C 165.31 434.30 164.94 433.92 164.56 433.55 C 164.30 433.29 164.05 433.03 163.79 432.77 C 162.45 431.42 161.11 430.09 159.66 428.86 C 158.39 427.76 157.23 426.53 156.14 425.25 C 155.50 424.50 154.81 423.84 154.06 423.19 C 152.83 422.10 151.73 420.92 150.63 419.70 C 149.60 418.56 148.53 417.48 147.36 416.48 C 146.09 415.38 144.91 414.20 143.73 413.02 C 143.49 412.78 143.25 412.54 143.01 412.31 C 142.52 411.81 142.02 411.32 141.52 410.82 C 140.89 410.19 140.26 409.56 139.63 408.94 C 139.14 408.45 138.65 407.96 138.16 407.47 C 137.82 407.13 137.47 406.78 137.13 406.44 C 135.65 404.96 134.30 403.40 133.00 401.75 C 132.83 401.54 132.66 401.32 132.49 401.10 C 132.05 400.55 131.61 399.98 131.17 399.42 C 131.02 399.23 130.88 399.04 130.72 398.85 C 127.52 394.74 124.97 390.09 122.35 385.60 C 122.05 385.08 121.74 384.56 121.43 384.04 C 120.25 382.04 119.25 379.98 118.27 377.87 C 117.86 376.97 117.41 376.08 116.95 375.20 C 116.21 373.74 115.65 372.21 115.09 370.67 C 114.77 369.79 114.41 368.95 114.02 368.10 C 113.65 367.28 113.32 366.45 112.98 365.62 C 112.92 365.47 112.92 365.47 112.62 364.71 C 110.47 359.19 109.04 353.27 107.75 347.50 C 107.69 347.25 107.64 347.00 107.58 346.75 C 106.79 343.25 106.24 339.78 105.84 336.22 C 105.74 335.46 105.62 334.71 105.49 333.96 C 105.18 332.00 105.13 330.04 105.09 328.06 C 105.08 327.67 105.07 327.27 105.07 326.88 C 104.89 319.29 104.74 311.69 105.90 304.17 C 106.03 303.28 106.16 302.38 106.28 301.49 C 106.40 300.62 106.53 299.75 106.66 298.88 C 106.72 298.47 106.78 298.06 106.84 297.64 C 107.29 294.46 107.96 291.36 108.75 288.25 C 108.80 288.05 108.85 287.84 108.90 287.63 C 109.66 284.63 110.53 281.69 111.50 278.75 C 111.58 278.52 111.65 278.29 111.73 278.05 C 112.33 276.23 112.96 274.42 113.61 272.61 C 113.70 272.35 113.79 272.09 113.89 271.82 C 114.44 270.29 115.04 268.80 115.73 267.33 C 115.96 266.84 116.17 266.35 116.38 265.86 C 116.78 264.92 117.24 264.02 117.70 263.11 C 118.00 262.50 118.25 261.88 118.50 261.25 C 118.65 260.93 118.81 260.61 118.97 260.30 C 119.05 260.15 119.12 259.99 119.20 259.84 C 119.30 259.64 119.40 259.45 119.50 259.25 C 119.65 258.95 119.79 258.66 119.94 258.35 C 121.91 254.42 124.07 250.65 126.61 247.07 C 126.95 246.57 127.26 246.07 127.55 245.55 C 127.98 244.79 128.46 244.18 129.00 243.50 C 129.17 243.21 129.34 242.92 129.50 242.62 C 129.93 241.85 130.44 241.19 131.00 240.50 C 131.81 239.34 132.56 238.15 133.28 236.94 C 133.80 236.06 134.36 235.29 135.00 234.50 C 135.26 234.06 135.50 233.62 135.75 233.17 C 136.11 232.57 136.56 232.05 137.00 231.50 C 137.25 231.08 137.49 230.65 137.72 230.21 C 138.09 229.60 138.55 229.06 139.00 228.50 C 140.29 226.71 141.50 224.87 142.69 223.01 C 143.51 221.73 144.37 220.49 145.25 219.25 C 147.33 216.31 149.31 213.31 151.26 210.28 C 152.24 208.76 153.24 207.25 154.25 205.75 C 154.42 205.50 154.58 205.25 154.76 204.99 C 156.13 202.91 157.54 200.87 159.02 198.86 C 160.36 197.01 161.60 195.10 162.82 193.17 C 163.45 192.19 164.10 191.22 164.75 190.25 C 164.87 190.07 164.99 189.89 165.12 189.70 C 165.75 188.74 166.40 187.79 167.06 186.84 C 168.72 184.49 170.30 182.08 171.84 179.64 C 172.40 178.77 173.01 177.92 173.61 177.07 C 173.95 176.57 174.26 176.07 174.55 175.55 C 174.98 174.79 175.45 174.18 176.00 173.50 C 176.35 172.99 176.69 172.47 177.03 171.96 C 177.61 171.08 178.21 170.21 178.81 169.34 C 180.37 167.08 181.89 164.79 183.41 162.50 C 184.38 161.04 185.34 159.59 186.41 158.20 C 186.92 157.52 187.39 156.80 187.86 156.08 C 188.26 155.49 188.67 154.91 189.08 154.33 C 189.79 153.32 190.46 152.29 191.12 151.25 C 191.90 150.04 192.70 148.85 193.53 147.67 C 194.44 146.37 195.32 145.03 196.20 143.71 C 196.64 143.04 197.09 142.37 197.53 141.70 C 197.61 141.58 197.61 141.58 198.02 140.97 C 199.50 138.75 199.50 138.75 200.00 138.00 C 200.33 137.50 200.67 137.00 201.00 136.49 C 201.81 135.26 202.64 134.05 203.52 132.86 C 204.33 131.75 205.08 130.62 205.80 129.45 C 206.27 128.71 206.76 127.98 207.25 127.25 C 207.89 126.29 208.52 125.32 209.14 124.34 C 209.82 123.27 210.53 122.23 211.26 121.20 C 211.85 120.36 212.42 119.51 212.98 118.66 C 213.09 118.50 213.20 118.34 213.31 118.17 C 213.81 117.42 214.30 116.67 214.79 115.92 C 215.68 114.58 216.59 113.29 217.59 112.03 C 218.79 110.48 219.80 108.78 220.85 107.12 C 221.10 106.73 221.37 106.35 221.65 105.97 C 222.07 105.41 222.40 104.80 222.74 104.18 C 223.11 103.57 223.56 103.05 224.00 102.50 C 224.99 101.08 225.91 99.61 226.82 98.14 C 227.25 97.50 227.25 97.50 227.73 96.91 C 228.35 96.12 228.90 95.29 229.45 94.45 C 230.16 93.38 230.88 92.31 231.62 91.27 C 232.38 90.21 233.06 89.11 233.73 88.00 C 234.59 86.60 235.50 85.31 236.55 84.05 C 237.27 83.16 237.88 82.21 238.50 81.25 C 240.35 78.44 242.24 75.65 244.21 72.92 C 245.21 71.52 246.16 70.12 247.07 68.66 C 247.52 67.96 248.01 67.29 248.50 66.62 C 249.33 65.50 250.09 64.34 250.84 63.16 C 251.65 61.86 252.50 60.58 253.41 59.34 C 253.82 58.78 254.18 58.21 254.52 57.59 C 254.96 56.82 255.44 56.20 256.00 55.50 C 256.48 54.81 256.96 54.11 257.43 53.41 C 257.91 52.71 258.39 52.08 259.00 51.50 C 259.06 51.40 259.06 51.40 259.38 50.88 C 260.21 49.49 260.21 49.49 261.22 49.54 Z" />
    <path id="navy-ribbon" fill="#111C3E" d="M 337.75 390.50 C 337.83 390.58 337.91 390.67 338.00 390.75 C 338.45 390.80 338.91 390.84 339.37 390.87 C 339.64 390.89 339.92 390.91 340.21 390.93 C 340.80 390.96 341.39 391.00 341.97 391.04 C 342.11 391.05 342.11 391.05 342.82 391.10 C 343.07 391.12 343.33 391.13 343.60 391.15 C 344.25 391.25 344.25 391.25 345.00 391.75 C 345.56 391.83 346.12 391.86 346.69 391.89 C 347.25 392.00 347.25 392.00 347.72 392.37 C 348.43 392.88 349.04 392.91 349.91 393.02 C 351.45 393.20 351.45 393.20 352.00 393.75 C 352.14 393.79 352.14 393.79 352.88 394.00 C 353.75 394.25 353.75 394.25 354.25 394.75 C 354.77 394.89 354.77 394.89 355.38 395.00 C 356.44 395.19 356.44 395.19 357.00 395.75 C 357.29 395.83 357.59 395.92 357.89 396.00 C 358.03 396.04 358.03 396.04 358.75 396.25 C 358.83 396.42 358.91 396.58 359.00 396.75 C 359.14 396.79 359.14 396.79 359.88 397.00 C 360.02 397.04 360.02 397.04 360.75 397.25 C 360.83 397.42 360.91 397.58 361.00 397.75 C 361.41 397.92 361.83 398.09 362.24 398.25 C 362.99 398.62 363.60 399.12 364.25 399.63 C 364.71 399.97 365.17 400.26 365.67 400.53 C 366.44 400.97 367.07 401.44 367.75 402.00 C 368.16 402.26 368.58 402.51 369.00 402.75 C 369.25 402.92 369.50 403.08 369.75 403.25 C 369.75 403.42 369.75 403.58 369.75 403.75 C 369.90 403.82 370.05 403.88 370.20 403.95 C 370.75 404.25 371.11 404.55 371.55 404.99 C 371.70 405.14 371.85 405.28 372.01 405.44 C 372.17 405.60 372.32 405.76 372.49 405.92 C 372.65 406.09 372.82 406.25 372.99 406.42 C 373.34 406.77 373.68 407.12 374.03 407.46 C 374.56 408.00 375.10 408.53 375.63 409.06 C 375.97 409.40 376.31 409.74 376.64 410.08 C 376.81 410.24 376.97 410.40 377.13 410.56 C 378.25 411.69 378.25 411.69 378.25 412.25 C 378.42 412.25 378.58 412.25 378.75 412.25 C 379.31 412.86 379.72 413.43 380.06 414.19 C 380.47 414.95 380.87 415.43 381.45 416.06 C 382.35 417.04 383.02 418.03 383.67 419.18 C 384.00 419.75 384.00 419.75 384.40 420.28 C 384.75 420.75 384.75 420.75 385.00 421.39 C 385.26 422.03 385.51 422.28 386.00 422.75 C 386.59 423.61 386.93 424.45 387.24 425.44 C 387.55 426.11 387.98 426.65 388.41 427.25 C 389.02 428.16 389.45 429.15 389.91 430.14 C 390.10 430.55 390.29 430.96 390.48 431.38 C 390.57 431.57 390.66 431.76 390.75 431.96 C 390.96 432.42 391.19 432.87 391.42 433.32 C 391.72 433.94 391.94 434.52 392.14 435.17 C 392.37 435.91 392.56 436.34 393.00 437.00 C 393.04 437.28 393.07 437.57 393.11 437.86 C 393.25 438.75 393.25 438.75 393.62 439.23 C 394.12 439.91 394.10 440.46 394.17 441.28 C 394.25 441.75 394.25 441.75 394.62 442.23 C 395.15 442.95 395.12 443.62 395.17 444.49 C 395.25 445.00 395.25 445.00 395.75 445.50 C 395.91 446.40 396.01 447.30 396.11 448.20 C 396.25 449.00 396.25 449.00 396.75 449.50 C 396.85 450.21 396.94 450.90 397.00 451.61 C 397.18 453.65 397.18 453.65 397.75 454.50 C 397.88 455.40 397.97 456.30 398.05 457.21 C 398.15 458.15 398.22 458.70 398.75 459.50 C 399.13 461.82 399.08 464.20 399.12 466.54 C 399.13 467.10 399.14 467.65 399.16 468.20 C 399.16 468.53 399.17 468.86 399.17 469.19 C 399.25 470.00 399.25 470.00 399.75 470.75 C 399.81 471.24 399.81 471.24 399.81 471.81 C 399.82 471.92 399.82 471.92 399.82 472.45 C 399.82 472.68 399.82 472.91 399.82 473.15 C 399.82 473.38 399.82 473.62 399.82 473.86 C 399.82 474.36 399.82 474.86 399.82 475.36 C 399.81 476.12 399.82 476.89 399.82 477.65 C 399.82 478.13 399.82 478.62 399.82 479.10 C 399.82 479.33 399.82 479.56 399.82 479.80 C 399.82 480.01 399.82 480.22 399.81 480.44 C 399.81 480.53 399.81 480.53 399.81 481.01 C 399.75 481.50 399.75 481.50 399.25 482.25 C 399.17 483.06 399.17 483.06 399.16 484.06 C 399.15 484.23 399.15 484.41 399.14 484.59 C 399.13 485.16 399.12 485.73 399.11 486.30 C 399.10 486.86 399.09 487.42 399.07 487.99 C 399.07 488.34 399.06 488.68 399.05 489.03 C 398.99 492.14 398.99 492.14 398.25 493.25 C 398.16 493.78 398.16 493.78 398.11 494.39 C 398.10 494.50 398.10 494.50 398.05 495.06 C 398.04 495.17 398.04 495.17 398.00 495.75 C 397.97 496.20 397.93 496.66 397.89 497.11 C 397.88 497.21 397.88 497.21 397.84 497.72 C 397.75 498.25 397.75 498.25 397.25 499.00 C 397.10 499.90 397.00 500.80 396.89 501.71 C 396.75 502.50 396.75 502.50 396.25 503.00 C 396.15 503.59 396.08 504.19 396.02 504.78 C 395.85 506.22 395.56 507.42 395.00 508.75 C 394.91 509.09 394.82 509.44 394.73 509.78 C 394.42 511.10 393.97 512.34 393.50 513.61 C 393.22 514.38 392.96 515.14 392.73 515.94 C 392.53 516.65 392.28 517.29 391.98 517.96 C 391.68 518.67 391.41 519.39 391.14 520.11 C 390.72 521.21 390.27 522.25 389.73 523.29 C 389.48 523.80 389.28 524.32 389.09 524.86 C 388.75 525.75 388.75 525.75 388.25 526.00 C 388.07 526.58 387.90 527.16 387.75 527.75 C 387.58 527.75 387.42 527.75 387.25 527.75 C 387.22 527.91 387.19 528.07 387.16 528.23 C 386.66 530.40 385.65 532.12 384.50 534.00 C 384.33 534.00 384.17 534.00 384.00 534.00 C 383.94 534.25 383.88 534.51 383.81 534.77 C 383.53 535.76 383.07 536.54 382.52 537.41 C 382.43 537.54 382.43 537.54 381.99 538.23 C 381.83 538.48 381.67 538.74 381.50 539.00 C 381.44 539.11 381.44 539.11 381.12 539.66 C 380.74 540.26 380.33 540.80 379.88 541.36 C 379.21 542.21 378.72 543.03 378.25 544.00 C 377.83 544.50 377.42 545.00 377.00 545.50 C 376.94 545.62 376.94 545.62 376.66 546.22 C 376.23 547.03 375.77 547.60 375.14 548.27 C 374.04 549.45 373.07 550.61 372.25 552.00 C 371.86 552.58 371.86 552.58 371.50 553.00 C 371.34 553.00 371.17 553.00 371.00 553.00 C 370.93 553.15 370.86 553.30 370.80 553.45 C 370.50 554.00 370.22 554.33 369.78 554.76 C 369.63 554.89 369.49 555.03 369.35 555.17 C 369.06 555.45 368.76 555.73 368.47 556.01 C 367.59 556.86 366.90 557.71 366.25 558.75 C 365.37 559.93 364.41 560.82 363.21 561.66 C 362.31 562.33 361.65 563.17 360.95 564.05 C 360.36 564.64 359.69 565.04 359.00 565.50 C 358.55 565.89 358.11 566.29 357.67 566.70 C 354.80 569.36 354.80 569.36 353.47 570.01 C 352.76 570.37 352.30 570.93 351.75 571.50 C 351.04 572.14 350.41 572.67 349.55 573.09 C 348.70 573.53 347.99 574.03 347.23 574.61 C 347.11 574.70 347.11 574.70 346.48 575.19 C 346.02 575.54 345.58 575.90 345.14 576.27 C 344.53 576.73 343.93 577.01 343.23 577.29 C 342.33 577.68 341.51 578.20 340.67 578.70 C 340.48 578.81 340.30 578.93 340.10 579.04 C 339.33 579.50 338.55 579.97 337.78 580.44 C 335.58 581.81 333.24 582.83 330.83 583.77 C 329.73 584.21 328.63 584.67 327.57 585.22 C 326.28 585.89 324.97 586.42 323.61 586.91 C 323.49 586.95 323.49 586.95 322.90 587.16 C 315.98 589.62 309.05 591.76 301.75 592.75 C 301.29 592.81 300.84 592.88 300.38 592.94 C 295.75 593.58 291.14 594.00 286.46 594.14 C 286.28 594.14 286.10 594.15 285.91 594.15 C 281.29 594.29 276.66 594.29 272.03 594.28 C 270.82 594.28 269.60 594.28 268.38 594.28 C 266.34 594.28 264.31 594.28 262.27 594.28 C 259.93 594.28 257.60 594.28 255.26 594.28 C 253.23 594.28 251.20 594.28 249.17 594.28 C 247.97 594.28 246.77 594.28 245.56 594.28 C 238.60 594.29 231.65 594.29 224.72 593.55 C 224.51 593.52 224.30 593.50 224.08 593.48 C 220.45 593.10 216.84 592.66 213.25 592.00 C 212.97 591.95 212.69 591.90 212.41 591.85 C 207.97 591.01 203.75 589.78 199.50 588.25 C 199.39 588.21 199.39 588.21 198.83 588.01 C 197.46 587.52 196.10 587.02 194.75 586.50 C 194.54 586.42 194.34 586.34 194.13 586.26 C 191.55 585.27 189.06 584.20 186.60 582.94 C 185.93 582.59 185.26 582.27 184.56 581.97 C 181.62 580.69 178.84 579.15 176.14 577.41 C 175.62 577.07 175.09 576.77 174.55 576.47 C 173.85 576.06 173.27 575.60 172.65 575.08 C 172.03 574.57 171.37 574.12 170.70 573.67 C 170.42 573.47 170.13 573.28 169.84 573.08 C 169.77 573.03 169.77 573.03 169.41 572.78 C 167.52 571.48 165.72 570.08 163.96 568.59 C 163.35 568.08 162.72 567.59 162.08 567.11 C 161.06 566.33 160.19 565.46 159.29 564.55 C 158.80 564.05 158.30 563.59 157.77 563.14 C 156.53 562.08 155.39 560.91 154.25 559.75 C 154.06 559.56 153.86 559.36 153.66 559.17 C 152.32 557.81 151.03 556.41 149.73 555.01 C 149.29 554.55 148.85 554.08 148.41 553.61 C 147.08 552.20 145.85 550.78 144.73 549.19 C 144.21 548.44 143.66 547.71 143.11 546.98 C 139.28 541.90 135.81 536.47 133.00 530.75 C 132.83 530.42 132.67 530.08 132.50 529.75 C 132.42 529.59 132.34 529.44 132.26 529.28 C 132.10 528.95 131.94 528.63 131.77 528.30 C 131.10 526.97 130.47 525.61 129.86 524.25 C 129.76 524.04 129.67 523.82 129.57 523.61 C 128.99 522.33 128.48 521.06 128.00 519.75 C 127.88 519.47 127.75 519.18 127.62 518.89 C 127.25 518.01 126.95 517.12 126.66 516.21 C 126.50 515.75 126.50 515.75 126.25 515.50 C 126.12 514.86 126.01 514.23 125.90 513.59 C 125.75 513.00 125.75 513.00 125.25 512.50 C 125.11 511.93 125.11 511.93 125.00 511.27 C 124.86 510.39 124.75 510.00 124.25 509.25 C 124.15 508.85 124.07 508.44 124.00 508.03 C 123.88 507.36 123.76 506.77 123.50 506.13 C 123.15 505.25 123.04 504.36 122.89 503.43 C 122.75 502.75 122.75 502.75 122.50 502.17 C 122.09 501.07 122.05 499.93 121.95 498.77 C 121.85 497.83 121.78 497.29 121.25 496.50 C 121.16 495.85 121.16 495.85 121.11 495.09 C 121.09 494.81 121.07 494.53 121.05 494.25 C 121.02 493.67 120.98 493.08 120.95 492.50 C 120.93 492.22 120.91 491.95 120.89 491.66 C 120.88 491.41 120.86 491.16 120.84 490.90 C 120.75 490.25 120.75 490.25 120.25 489.50 C 120.17 488.86 120.12 488.25 120.10 487.61 C 120.09 487.42 120.08 487.23 120.07 487.04 C 119.97 484.93 119.96 482.83 119.97 480.72 C 119.97 480.30 119.97 479.88 119.97 479.46 C 119.97 478.58 119.97 477.71 119.97 476.83 C 119.97 475.72 119.97 474.61 119.97 473.51 C 119.97 472.64 119.97 471.77 119.97 470.91 C 119.97 470.50 119.97 470.09 119.97 469.68 C 119.96 467.58 119.99 465.49 120.10 463.39 C 120.10 463.21 120.11 463.03 120.12 462.85 C 120.17 461.94 120.24 461.52 120.75 460.75 C 120.84 460.19 120.84 460.19 120.89 459.55 C 120.91 459.32 120.93 459.09 120.95 458.85 C 120.96 458.61 120.98 458.37 121.00 458.12 C 121.03 457.65 121.07 457.17 121.11 456.70 C 121.12 456.48 121.14 456.27 121.16 456.06 C 121.25 455.50 121.25 455.50 121.75 454.75 C 121.88 453.84 121.97 452.93 122.05 452.02 C 122.20 450.55 122.20 450.55 122.75 450.00 C 122.85 449.42 122.93 448.84 123.00 448.25 C 123.19 446.56 123.19 446.56 123.75 446.00 C 123.84 445.48 123.84 445.48 123.89 444.88 C 123.98 443.80 123.98 443.80 124.25 443.25 C 124.42 443.25 124.58 443.25 124.75 443.25 C 124.76 443.16 124.76 443.16 124.80 442.72 C 124.82 442.49 124.84 442.27 124.86 442.03 C 124.88 441.81 124.90 441.58 124.92 441.35 C 125.00 440.75 125.00 440.75 125.25 440.25 C 125.42 440.25 125.58 440.25 125.75 440.25 C 125.78 440.06 125.81 439.86 125.84 439.67 C 125.86 439.54 125.86 439.54 125.97 438.91 C 125.99 438.78 125.99 438.78 126.09 438.15 C 126.25 437.50 126.25 437.50 126.75 437.00 C 126.83 436.71 126.92 436.42 127.00 436.12 C 127.25 435.25 127.25 435.25 127.75 434.75 C 127.89 434.23 127.89 434.23 128.00 433.62 C 128.19 432.56 128.19 432.56 128.75 432.00 C 128.83 431.71 128.91 431.41 129.00 431.11 C 129.08 430.83 129.16 430.54 129.25 430.25 C 129.41 430.17 129.58 430.08 129.75 430.00 C 129.80 429.74 129.85 429.48 129.91 429.22 C 130.23 427.93 131.24 427.27 132.25 426.50 C 134.45 427.51 136.15 429.61 137.83 431.30 C 138.08 431.55 138.33 431.80 138.59 432.05 C 139.27 432.73 139.95 433.41 140.63 434.09 C 141.34 434.81 142.06 435.52 142.77 436.24 C 143.97 437.43 145.16 438.63 146.36 439.83 C 147.74 441.21 149.13 442.60 150.51 443.98 C 151.70 445.17 152.89 446.36 154.08 447.55 C 154.79 448.26 155.50 448.97 156.21 449.68 C 156.88 450.35 157.55 451.01 158.21 451.68 C 158.46 451.92 158.70 452.17 158.95 452.41 C 159.28 452.75 159.61 453.08 159.95 453.41 C 160.04 453.51 160.04 453.51 160.51 453.98 C 161.44 454.97 161.85 455.51 161.83 456.89 C 161.83 457.13 161.83 457.37 161.83 457.61 C 161.75 458.25 161.75 458.25 161.25 459.00 C 161.16 459.51 161.16 459.51 161.11 460.09 C 161.10 460.20 161.10 460.20 161.05 460.73 C 161.02 461.17 160.98 461.61 160.95 462.05 C 160.93 462.26 160.91 462.47 160.89 462.69 C 160.88 462.88 160.86 463.07 160.84 463.27 C 160.75 463.75 160.75 463.75 160.25 464.25 C 160.17 464.75 160.17 464.75 160.15 465.38 C 160.14 465.50 160.14 465.50 160.12 466.09 C 160.11 466.22 160.11 466.22 160.10 466.87 C 160.09 467.00 160.09 467.00 160.07 467.68 C 159.98 470.46 159.96 473.23 159.97 476.01 C 159.97 476.85 159.97 477.69 159.97 478.53 C 159.96 480.97 159.98 483.41 160.10 485.85 C 160.10 486.04 160.11 486.22 160.12 486.41 C 160.17 487.31 160.24 487.73 160.75 488.50 C 160.84 489.06 160.84 489.06 160.89 489.70 C 160.90 489.81 160.90 489.81 160.95 490.40 C 160.98 490.88 161.02 491.37 161.05 491.85 C 161.06 491.97 161.06 491.97 161.11 492.55 C 161.12 492.77 161.14 492.98 161.16 493.19 C 161.25 493.75 161.25 493.75 161.75 494.50 C 161.87 494.98 161.87 494.98 161.97 495.55 C 162.19 496.72 162.45 497.88 162.73 499.05 C 162.77 499.21 162.81 499.38 162.85 499.55 C 163.13 500.68 163.53 501.69 164.00 502.75 C 164.21 503.33 164.42 503.92 164.62 504.50 C 165.04 505.69 165.49 506.85 166.00 508.00 C 166.08 508.19 166.15 508.38 166.23 508.58 C 167.07 510.66 168.06 512.67 169.16 514.63 C 169.46 515.17 169.73 515.72 170.00 516.28 C 170.91 518.12 172.18 519.76 173.35 521.43 C 173.95 522.29 174.53 523.16 175.09 524.03 C 176.28 525.81 177.69 527.33 179.16 528.88 C 180.11 529.89 181.02 530.89 181.77 532.06 C 182.33 532.86 182.94 533.22 183.75 533.75 C 183.83 533.91 183.90 534.07 183.98 534.24 C 184.32 534.88 184.66 535.08 185.28 535.45 C 186.69 536.34 187.81 537.44 188.99 538.61 C 190.01 539.59 191.04 540.41 192.23 541.16 C 192.75 541.50 193.23 541.87 193.72 542.25 C 194.68 542.98 195.70 543.53 196.77 544.08 C 197.38 544.43 197.88 544.79 198.42 545.22 C 199.57 546.10 200.81 546.68 202.12 547.28 C 202.58 547.49 203.03 547.70 203.48 547.91 C 203.69 548.01 203.91 548.11 204.13 548.21 C 204.87 548.56 205.60 548.92 206.33 549.29 C 207.84 550.05 209.34 550.64 210.98 551.07 C 211.50 551.25 211.50 551.25 212.00 551.75 C 212.58 551.89 212.58 551.89 213.25 552.00 C 214.44 552.19 214.44 552.19 215.00 552.75 C 215.58 552.85 216.16 552.93 216.75 553.00 C 218.44 553.19 218.44 553.19 219.00 553.75 C 219.58 553.85 220.16 553.93 220.75 554.00 C 222.44 554.19 222.44 554.19 223.00 554.75 C 223.63 554.88 223.63 554.88 224.41 554.96 C 224.69 555.00 224.98 555.03 225.27 555.06 C 225.57 555.09 225.86 555.12 226.17 555.16 C 226.46 555.19 226.76 555.22 227.06 555.26 C 229.44 555.52 229.44 555.52 230.54 555.51 C 231.25 555.50 231.25 555.50 232.00 555.75 C 232.73 555.77 233.45 555.78 234.17 555.78 C 234.40 555.78 234.62 555.78 234.85 555.78 C 235.61 555.78 236.36 555.78 237.12 555.78 C 237.66 555.78 238.20 555.78 238.74 555.78 C 240.21 555.78 241.68 555.78 243.15 555.78 C 244.69 555.78 246.22 555.78 247.76 555.78 C 250.34 555.78 252.92 555.78 255.50 555.78 C 258.49 555.78 261.47 555.78 264.46 555.78 C 267.02 555.78 269.58 555.78 272.14 555.78 C 273.67 555.78 275.20 555.78 276.73 555.78 C 278.17 555.78 279.61 555.78 281.05 555.78 C 281.58 555.78 282.11 555.78 282.64 555.78 C 283.36 555.78 284.08 555.78 284.80 555.78 C 285.01 555.78 285.22 555.78 285.43 555.78 C 286.34 555.78 287.13 555.72 288.00 555.50 C 288.64 555.45 289.27 555.42 289.91 555.39 C 291.52 555.31 293.12 555.18 294.72 555.02 C 294.91 555.00 295.10 554.98 295.30 554.96 C 296.21 554.86 296.73 554.77 297.50 554.25 C 298.39 554.10 299.29 554.00 300.19 553.89 C 301.00 553.75 301.00 553.75 301.75 553.25 C 302.51 553.11 303.26 553.01 304.02 552.92 C 304.79 552.74 305.15 552.50 305.75 552.00 C 306.46 551.72 307.18 551.52 307.91 551.33 C 308.15 551.27 308.39 551.20 308.64 551.14 C 308.87 551.08 309.10 551.03 309.33 550.97 C 310.06 550.73 310.60 550.41 311.25 550.00 C 311.90 549.65 312.56 549.32 313.22 548.98 C 313.39 548.90 313.56 548.81 313.74 548.72 C 314.81 548.18 315.84 547.83 317.00 547.50 C 317.50 547.20 317.50 547.20 317.89 546.89 C 318.92 546.11 320.01 545.60 321.20 545.11 C 322.00 544.75 322.00 544.75 322.25 544.25 C 322.50 544.16 322.75 544.06 323.00 543.97 C 324.11 543.53 324.85 542.77 325.72 541.96 C 326.34 541.42 326.99 541.09 327.75 540.75 C 328.43 540.25 329.00 539.75 329.58 539.14 C 330.13 538.62 330.52 538.32 331.16 537.96 C 332.36 537.22 333.30 536.31 334.29 535.32 C 334.47 535.14 334.66 534.95 334.85 534.77 C 335.23 534.38 335.62 533.99 336.01 533.61 C 336.59 533.02 337.19 532.43 337.78 531.84 C 338.16 531.47 338.54 531.09 338.91 530.71 C 339.09 530.54 339.27 530.36 339.45 530.18 C 340.38 529.24 340.92 528.56 341.25 527.25 C 341.81 526.64 341.81 526.64 342.50 526.00 C 343.27 525.18 343.96 524.37 344.48 523.38 C 344.87 522.66 345.31 522.17 345.91 521.61 C 346.68 520.88 346.98 520.29 347.25 519.25 C 347.41 519.17 347.58 519.09 347.75 519.00 C 348.09 518.38 348.37 517.75 348.67 517.11 C 348.98 516.53 349.28 516.20 349.75 515.75 C 350.13 514.93 350.46 514.10 350.79 513.26 C 350.90 513.00 351.00 512.74 351.11 512.47 C 351.21 512.22 351.30 511.97 351.41 511.72 C 351.77 510.96 352.23 510.40 352.75 509.75 C 352.87 509.27 352.99 508.79 353.09 508.31 C 353.34 507.43 353.77 506.65 354.20 505.85 C 354.65 504.96 354.98 504.08 355.25 503.12 C 355.46 502.39 355.72 501.71 356.00 501.00 C 356.17 500.42 356.34 499.83 356.50 499.25 C 356.58 499.02 356.65 498.80 356.73 498.56 C 357.03 497.67 357.27 496.76 357.50 495.84 C 357.54 495.67 357.59 495.50 357.63 495.32 C 357.95 494.02 358.19 492.71 358.38 491.39 C 358.50 490.75 358.50 490.75 358.74 490.16 C 359.00 489.50 359.12 488.93 359.20 488.22 C 359.22 488.10 359.22 488.10 359.30 487.49 C 359.33 487.23 359.36 486.97 359.39 486.70 C 359.42 486.43 359.46 486.16 359.49 485.88 C 360.26 479.23 360.35 472.40 359.50 465.75 C 359.47 465.55 359.45 465.34 359.42 465.13 C 359.06 462.34 358.44 459.68 357.64 456.99 C 357.45 456.34 357.31 455.69 357.17 455.03 C 356.18 451.04 354.26 447.31 352.25 443.75 C 352.10 443.49 351.95 443.22 351.80 442.95 C 350.68 441.08 349.25 439.56 347.75 438.00 C 347.56 437.79 347.37 437.58 347.17 437.37 C 347.00 437.18 346.83 437.00 346.66 436.81 C 346.51 436.65 346.36 436.50 346.21 436.33 C 345.59 435.89 345.25 435.91 344.50 436.00 C 344.00 436.37 344.00 436.37 343.52 436.88 C 343.35 437.06 343.17 437.24 342.99 437.42 C 342.81 437.61 342.64 437.80 342.45 438.00 C 342.10 438.38 341.74 438.75 341.38 439.12 C 341.30 439.21 341.30 439.21 340.90 439.63 C 340.50 440.00 340.50 440.00 340.00 440.00 C 339.84 440.33 339.67 440.66 339.50 441.00 C 339.34 441.00 339.17 441.00 339.00 441.00 C 338.97 441.07 338.97 441.07 338.80 441.45 C 338.48 442.04 338.18 442.33 337.66 442.75 C 336.59 443.65 335.61 444.62 334.64 445.62 C 333.97 446.30 333.29 446.94 332.57 447.55 C 331.27 448.68 330.08 449.90 328.88 451.12 C 327.51 452.51 326.15 453.88 324.66 455.15 C 324.08 455.65 323.54 456.20 323.00 456.75 C 322.82 456.93 322.63 457.12 322.44 457.31 C 321.94 457.80 321.45 458.31 320.96 458.81 C 319.41 460.39 317.85 461.87 316.12 463.25 C 314.87 464.27 313.78 465.42 312.73 466.65 C 311.59 467.95 310.37 469.17 309.14 470.39 C 308.91 470.62 308.69 470.84 308.46 471.08 C 307.32 472.21 306.18 473.30 304.96 474.34 C 304.18 475.03 303.45 475.76 302.72 476.50 C 302.57 476.64 302.43 476.79 302.28 476.94 C 301.42 477.80 300.61 478.69 299.84 479.64 C 299.27 480.24 298.81 480.42 298.00 480.50 C 296.56 479.71 295.46 478.54 294.31 477.38 C 294.12 477.19 293.93 477.00 293.73 476.80 C 293.55 476.62 293.36 476.43 293.18 476.24 C 293.01 476.08 292.84 475.91 292.67 475.74 C 292.25 475.25 292.25 475.25 292.04 474.75 C 291.70 474.16 291.29 473.95 290.72 473.59 C 289.61 472.78 288.68 471.73 287.71 470.75 C 287.47 470.51 287.22 470.26 286.98 470.01 C 286.33 469.37 285.69 468.72 285.05 468.07 C 284.02 467.03 283.00 466.00 281.97 464.96 C 281.61 464.61 281.26 464.25 280.90 463.89 C 279.78 462.75 278.64 461.65 277.42 460.62 C 276.73 460.02 276.09 459.37 275.45 458.72 C 275.33 458.59 275.21 458.47 275.08 458.34 C 274.84 458.10 274.59 457.85 274.35 457.60 C 273.82 457.07 273.28 456.53 272.75 456.00 C 272.10 455.35 272.01 455.11 271.95 454.17 C 272.26 453.22 272.36 453.08 273.09 452.49 C 274.36 451.42 275.52 450.25 276.69 449.06 C 277.09 448.66 277.49 448.26 277.89 447.85 C 279.02 446.71 280.15 445.57 281.28 444.43 C 281.98 443.72 282.67 443.02 283.37 442.32 C 283.63 442.05 283.90 441.79 284.16 441.52 C 284.53 441.14 284.90 440.77 285.27 440.40 C 285.37 440.30 285.37 440.30 285.90 439.76 C 286.51 439.24 287.01 439.02 287.75 438.75 C 288.36 438.19 288.36 438.19 289.00 437.50 C 289.24 437.25 289.49 437.01 289.74 436.77 C 290.46 436.05 291.18 435.33 291.90 434.62 C 292.20 434.31 292.51 434.00 292.82 433.70 C 293.27 433.25 293.72 432.80 294.17 432.35 C 294.31 432.22 294.44 432.08 294.58 431.95 C 295.25 431.28 295.88 430.61 296.47 429.88 C 296.97 429.29 297.48 428.78 298.08 428.29 C 299.72 426.87 301.23 425.30 302.76 423.76 C 303.11 423.40 303.47 423.05 303.82 422.70 C 304.58 421.94 305.33 421.18 306.09 420.42 C 307.29 419.22 308.48 418.02 309.68 416.82 C 313.08 413.41 316.48 410.00 319.88 406.59 C 321.77 404.70 323.65 402.82 325.53 400.93 C 326.72 399.74 327.91 398.55 329.10 397.36 C 329.84 396.61 330.57 395.87 331.31 395.13 C 331.66 394.79 332.00 394.45 332.34 394.10 C 332.81 393.63 333.28 393.16 333.75 392.70 C 333.88 392.56 334.02 392.42 334.16 392.28 C 335.24 391.20 336.15 390.32 337.75 390.50 Z" />
    <path id="red-heart" fill="#CE1A24" d="M 217.41 273.17 C 217.60 273.17 217.80 273.17 218.00 273.17 C 224.22 273.20 230.85 273.96 236.50 276.75 C 236.82 276.90 237.14 277.06 237.46 277.21 C 241.35 279.10 245.13 281.28 248.50 284.00 C 248.59 284.07 248.59 284.07 249.07 284.43 C 250.62 285.64 252.00 286.97 253.38 288.38 C 253.57 288.57 253.76 288.76 253.95 288.96 C 254.74 289.76 255.52 290.56 256.30 291.37 C 256.88 291.96 257.46 292.55 258.04 293.14 C 258.21 293.32 258.39 293.51 258.57 293.70 C 259.26 294.40 259.85 294.93 260.75 295.35 C 261.98 295.19 262.65 294.36 263.50 293.50 C 263.65 293.35 263.80 293.21 263.95 293.06 C 264.41 292.61 264.85 292.16 265.29 291.71 C 265.63 291.38 265.96 291.04 266.30 290.70 C 266.81 290.18 267.33 289.66 267.84 289.13 C 271.69 285.22 275.77 282.02 280.53 279.27 C 280.83 279.10 281.14 278.92 281.43 278.74 C 287.97 274.82 296.39 273.13 303.94 273.19 C 304.11 273.19 304.29 273.19 304.47 273.19 C 311.43 273.23 318.64 274.37 324.85 277.67 C 325.48 277.99 326.10 278.24 326.75 278.50 C 329.23 279.75 331.57 281.29 333.75 283.00 C 333.85 283.08 333.85 283.08 334.34 283.47 C 336.18 284.93 337.86 286.51 339.52 288.17 C 339.65 288.30 339.78 288.43 339.91 288.57 C 342.09 290.75 343.99 292.94 345.50 295.64 C 346.00 296.50 346.00 296.50 346.51 297.13 C 347.77 298.72 348.65 300.82 349.31 302.74 C 349.56 303.41 349.84 304.06 350.12 304.72 C 350.68 306.04 351.13 307.36 351.50 308.75 C 351.58 309.05 351.66 309.35 351.75 309.66 C 352.47 312.67 352.91 315.65 353.00 318.75 C 353.01 318.92 353.01 319.09 353.02 319.27 C 353.27 328.34 351.24 337.32 346.75 345.25 C 346.70 345.34 346.70 345.34 346.46 345.77 C 345.05 348.30 343.50 350.69 341.75 353.00 C 341.63 353.16 341.52 353.32 341.40 353.48 C 340.19 355.09 338.82 356.50 337.40 357.91 C 337.14 358.17 336.88 358.43 336.63 358.69 C 335.93 359.38 335.23 360.08 334.54 360.77 C 333.80 361.50 333.07 362.23 332.34 362.97 C 331.11 364.19 329.89 365.42 328.66 366.65 C 327.24 368.06 325.82 369.47 324.41 370.89 C 322.89 372.40 321.38 373.91 319.87 375.43 C 319.43 375.86 319.00 376.29 318.57 376.73 C 317.88 377.41 317.20 378.09 316.51 378.77 C 316.26 379.02 316.01 379.27 315.77 379.52 C 314.52 380.77 313.27 381.98 311.93 383.12 C 311.14 383.82 310.44 384.60 309.73 385.38 C 307.41 387.87 305.01 390.27 302.61 392.67 C 301.99 393.29 301.38 393.91 300.76 394.52 C 300.16 395.12 299.56 395.72 298.96 396.32 C 298.74 396.54 298.53 396.76 298.30 396.98 C 297.22 398.06 296.13 399.09 294.98 400.08 C 294.14 400.82 293.35 401.61 292.56 402.41 C 292.39 402.58 292.21 402.76 292.03 402.94 C 291.66 403.31 291.29 403.68 290.92 404.05 C 290.36 404.61 289.80 405.17 289.24 405.73 C 288.88 406.09 288.52 406.45 288.16 406.81 C 287.99 406.98 287.82 407.14 287.65 407.31 C 287.58 407.39 287.58 407.39 287.17 407.79 C 287.04 407.93 286.90 408.07 286.76 408.21 C 286.31 408.69 285.88 409.17 285.45 409.67 C 284.45 410.82 283.38 411.91 282.30 412.99 C 282.19 413.10 282.19 413.10 281.65 413.64 C 281.07 414.22 280.49 414.80 279.91 415.38 C 279.55 415.74 279.19 416.11 278.82 416.47 C 277.56 417.74 276.29 419.01 275.02 420.27 C 273.84 421.45 272.66 422.63 271.49 423.82 C 270.47 424.83 269.46 425.85 268.44 426.87 C 267.84 427.47 267.23 428.08 266.63 428.68 C 265.95 429.36 265.28 430.03 264.61 430.71 C 264.41 430.91 264.21 431.11 264.00 431.31 C 263.82 431.50 263.63 431.68 263.44 431.87 C 263.28 432.03 263.13 432.19 262.96 432.35 C 262.32 432.91 261.80 433.25 260.94 433.25 C 259.27 432.64 258.10 431.39 256.98 430.05 C 256.05 428.98 255.01 428.00 254.00 427.00 C 253.02 426.02 252.04 425.04 251.06 424.05 C 250.25 423.24 249.45 422.44 248.64 421.63 C 248.04 421.02 247.43 420.41 246.82 419.80 C 246.11 419.09 245.41 418.38 244.70 417.67 C 244.48 417.46 244.27 417.24 244.05 417.02 C 242.95 415.92 241.84 414.86 240.66 413.86 C 240.12 413.39 239.61 412.90 239.11 412.39 C 238.94 412.22 238.77 412.05 238.59 411.88 C 238.13 411.39 237.70 410.90 237.26 410.38 C 236.07 409.02 234.78 407.75 233.50 406.46 C 233.23 406.20 232.97 405.94 232.71 405.67 C 232.16 405.12 231.61 404.58 231.06 404.03 C 230.36 403.33 229.66 402.62 228.96 401.92 C 228.41 401.38 227.87 400.84 227.33 400.29 C 227.07 400.03 226.81 399.78 226.55 399.52 C 226.19 399.16 225.83 398.79 225.47 398.43 C 225.26 398.23 225.06 398.02 224.84 397.81 C 224.25 397.25 224.25 397.25 223.60 396.73 C 223.06 396.30 222.64 395.88 222.20 395.35 C 221.11 394.07 219.93 392.89 218.74 391.71 C 218.50 391.47 218.26 391.23 218.03 390.99 C 217.53 390.49 217.03 389.99 216.53 389.50 C 215.89 388.86 215.26 388.23 214.63 387.59 C 214.13 387.10 213.64 386.61 213.15 386.11 C 212.80 385.77 212.45 385.42 212.11 385.07 C 210.99 383.96 209.87 382.89 208.67 381.87 C 208.16 381.42 207.67 380.95 207.19 380.47 C 207.01 380.29 206.83 380.12 206.65 379.93 C 206.47 379.75 206.29 379.58 206.11 379.39 C 205.93 379.21 205.75 379.03 205.57 378.85 C 204.72 378.00 203.90 377.14 203.12 376.23 C 202.55 375.57 201.97 374.99 201.31 374.43 C 200.30 373.55 199.35 372.64 198.40 371.69 C 198.31 371.61 198.31 371.61 197.87 371.17 C 197.31 370.61 196.74 370.05 196.18 369.49 C 195.98 369.29 195.79 369.10 195.58 368.90 C 194.55 367.87 193.51 366.84 192.48 365.80 C 191.42 364.75 190.36 363.70 189.30 362.65 C 188.48 361.83 187.65 361.01 186.83 360.19 C 186.44 359.80 186.05 359.41 185.66 359.03 C 183.12 356.51 180.85 353.90 178.75 351.00 C 178.57 350.75 178.38 350.50 178.19 350.24 C 177.18 348.84 176.32 347.38 175.50 345.86 C 175.37 345.62 175.24 345.38 175.11 345.14 C 173.73 342.56 172.54 339.89 171.68 337.09 C 171.54 336.63 171.38 336.16 171.21 335.71 C 168.54 327.93 168.14 318.21 170.25 310.25 C 170.28 310.15 170.28 310.15 170.40 309.63 C 170.95 307.44 171.60 305.32 172.50 303.25 C 172.59 303.03 172.68 302.80 172.77 302.57 C 173.37 301.08 174.04 299.62 174.75 298.17 C 174.83 298.01 174.91 297.84 174.99 297.67 C 175.48 296.69 176.04 295.81 176.70 294.93 C 177.00 294.51 177.24 294.07 177.49 293.62 C 178.02 292.66 178.70 291.92 179.45 291.14 C 179.72 290.86 179.99 290.57 180.26 290.29 C 180.39 290.15 180.52 290.01 180.65 289.87 C 181.08 289.41 181.49 288.94 181.89 288.45 C 184.88 285.00 188.76 282.32 192.60 279.91 C 193.00 279.66 193.40 279.40 193.80 279.14 C 194.75 278.52 195.67 278.06 196.74 277.68 C 197.26 277.50 197.74 277.28 198.23 277.05 C 200.87 275.87 203.59 274.99 206.39 274.31 C 206.59 274.26 206.79 274.21 207.00 274.16 C 210.44 273.36 213.88 273.15 217.41 273.17 Z" />
  </g>
</svg>
